<svg xmlns="http://www.w3.org/2000/svg" viewBox="0 0 299.5 299.5"><defs><style>.cls-1,.cls-7{fill:#fff;}.cls-2,.cls-8{fill:#969696;}.cls-3,.cls-4,.cls-5,.cls-6{fill:none;}.cls-3,.cls-4,.cls-5,.cls-6,.cls-7,.cls-8{stroke:#969696;}.cls-3,.cls-4,.cls-5,.cls-6,.cls-7{stroke-linecap:round;stroke-width:5px;}.cls-3,.cls-4,.cls-7{stroke-linejoin:round;}.cls-4,.cls-6{fill-rule:evenodd;}.cls-5,.cls-6,.cls-8{stroke-miterlimit:10;}</style></defs><title>sell-1</title><g id="Layer_2" data-name="Layer 2"><g id="Layer_1-2" data-name="Layer 1"><path class="cls-1" d="M149.75,297C68.56,297,2.5,230.94,2.5,149.75S68.56,2.5,149.75,2.5,297,68.56,297,149.75,230.94,297,149.75,297Z"/><path class="cls-2" d="M149.75,5A144.75,144.75,0,0,1,252.1,252.1,144.75,144.75,0,0,1,47.4,47.4,143.8,143.8,0,0,1,149.75,5m0-5A149.75,149.75,0,1,0,299.5,149.75,149.75,149.75,0,0,0,149.75,0Z"/><path class="cls-2" d="M149.75,16.53A133.22,133.22,0,0,1,244,244,133.22,133.22,0,0,1,55.55,55.55a132.35,132.35,0,0,1,94.2-39m0-5A138.22,138.22,0,1,0,288,149.75,138.22,138.22,0,0,0,149.75,11.53Z"/><line class="cls-3" x1="163.34" y1="145.56" x2="185.76" y2="151.47"/><line class="cls-3" x1="163.34" y1="127.72" x2="185.76" y2="133.64"/><line class="cls-3" x1="163.34" y1="109.89" x2="185.76" y2="115.8"/><line class="cls-3" x1="163.34" y1="92.05" x2="226.23" y2="108.64"/><line class="cls-3" x1="163.34" y1="74.22" x2="226.23" y2="90.81"/><line class="cls-3" x1="163.34" y1="56.38" x2="226.23" y2="72.97"/><polygon class="cls-4" points="196.15 118.64 224.59 126.15 224.59 161.72 196.15 154.21 196.15 118.64"/><path class="cls-2" d="M149,41.27h0l85.12,22.46V176.58l-83.85-22.12-1.28-.34-1.28.34L64.13,176.52V63.66L149,41.27m.35-5.26-.35.09-.09,0v0L59.13,59.81V183L149,159.3l90.12,23.78V59.87L149.34,36.19V36Z"/><line class="cls-5" x1="73.56" y1="161.67" x2="99.85" y2="154.74"/><line class="cls-5" x1="73.56" y1="143.84" x2="99.85" y2="136.9"/><line class="cls-5" x1="73.56" y1="126" x2="134.9" y2="109.92"/><line class="cls-5" x1="119.95" y1="95.93" x2="136.45" y2="91.57"/><line class="cls-5" x1="119.95" y1="78.09" x2="136.45" y2="73.74"/><line class="cls-5" x1="119.95" y1="60.25" x2="136.45" y2="55.9"/><polygon class="cls-6" points="110.16 134.49 134.81 127.99 134.81 145.51 110.16 152.02 110.16 134.49"/><polygon class="cls-6" points="76.65 71.68 107.49 63.54 107.49 99.11 76.65 107.25 76.65 71.68"/><line class="cls-5" x1="149.56" y1="39.25" x2="149.56" y2="159.04"/><path class="cls-7" d="M106.73,192.18v31.11c0,20.47,18.14,37.21,40.32,37.21h3.52c22.18,0,40.32-16.75,40.32-37.21V192.18"/><path class="cls-1" d="M148.8,251.18a31.27,31.27,0,0,1-31.24-31.24V165.1a31.24,31.24,0,0,1,62.48,0v54.84A31.27,31.27,0,0,1,148.8,251.18Z"/><path class="cls-2" d="M148.8,136.36a28.77,28.77,0,0,1,28.74,28.74v54.84a28.74,28.74,0,1,1-57.48,0V165.1a28.77,28.77,0,0,1,28.74-28.74m0-5h0a33.84,33.84,0,0,0-33.74,33.74v54.84a33.84,33.84,0,0,0,33.74,33.74h0a33.84,33.84,0,0,0,33.74-33.74V165.1a33.84,33.84,0,0,0-33.74-33.74Z"/><line class="cls-3" x1="117.72" y1="168.51" x2="154.11" y2="168.51"/><line class="cls-1" x1="117.72" y1="168.51" x2="154.11" y2="168.51"/><line class="cls-3" x1="117.72" y1="180.64" x2="154.11" y2="180.64"/><line class="cls-1" x1="117.72" y1="180.64" x2="154.11" y2="180.64"/><line class="cls-3" x1="117.72" y1="192.77" x2="154.11" y2="192.77"/><line class="cls-1" x1="117.72" y1="192.77" x2="154.11" y2="192.77"/><line class="cls-3" x1="117.72" y1="204.91" x2="154.11" y2="204.91"/><line class="cls-1" x1="117.72" y1="204.91" x2="154.11" y2="204.91"/><line class="cls-3" x1="117.72" y1="217.04" x2="154.11" y2="217.04"/><line class="cls-1" x1="117.72" y1="217.04" x2="154.11" y2="217.04"/><line class="cls-7" x1="142.74" y1="260.5" x2="142.74" y2="284.51"/><line class="cls-7" x1="154.87" y1="260.5" x2="154.87" y2="284.51"/><polygon class="cls-8" points="208.33 217.53 235.57 196.14 237.61 205.06 256.88 197.44 233.93 218.17 231.16 208.91 208.33 217.53"/><polygon class="cls-8" points="90.11 217.84 62.86 196.44 60.82 205.37 41.55 197.75 64.5 218.48 67.27 209.22 90.11 217.84"/></g></g></svg>