<svg xmlns="http://www.w3.org/2000/svg" viewBox="0 0 299.5 299.5"><defs><style>.cls-1,.cls-4{fill:#fff;}.cls-2,.cls-6{fill:#969696;}.cls-3,.cls-5{fill:none;}.cls-3,.cls-4,.cls-5,.cls-6{stroke:#969696;stroke-width:5px;}.cls-3{stroke-miterlimit:10;}.cls-4,.cls-5,.cls-6{stroke-linecap:round;stroke-linejoin:round;}</style></defs><title>sell-2</title><g id="Layer_2" data-name="Layer 2"><g id="Layer_1-2" data-name="Layer 1"><path class="cls-1" d="M149.75,297C68.56,297,2.5,230.94,2.5,149.75S68.56,2.5,149.75,2.5,297,68.56,297,149.75,230.94,297,149.75,297Z"/><path class="cls-2" d="M149.75,5A144.75,144.75,0,0,1,252.1,252.1,144.75,144.75,0,0,1,47.4,47.4,143.8,143.8,0,0,1,149.75,5m0-5A149.75,149.75,0,1,0,299.5,149.75,149.75,149.75,0,0,0,149.75,0Z"/><path class="cls-2" d="M149.75,16.53A133.22,133.22,0,0,1,244,244,133.22,133.22,0,0,1,55.55,55.55a132.35,132.35,0,0,1,94.2-39m0-5A138.22,138.22,0,1,0,288,149.75,138.22,138.22,0,0,0,149.75,11.53Z"/><path class="cls-3" d="M123.3,98.93"/><rect class="cls-4" x="196.41" y="95.84" width="55.82" height="71.1" transform="translate(12.59 -19.45) rotate(5.11)"/><rect class="cls-4" x="201.72" y="101.75" width="55.82" height="71.1" transform="translate(43.72 -55.1) rotate(15.11)"/><rect class="cls-4" x="206.31" y="108.64" width="55.82" height="71.1" transform="translate(85.78 -87.36) rotate(25.72)"/><rect class="cls-4" x="224.96" y="116.93" width="21.26" height="21.26" transform="translate(78.7 -89.6) rotate(25.72)"/><line class="cls-5" x1="217.08" y1="141.51" x2="247.61" y2="156.22"/><line class="cls-5" x1="212.75" y1="150.49" x2="230.11" y2="158.85"/><line class="cls-5" x1="209.87" y1="156.48" x2="227.23" y2="164.84"/><path class="cls-5" d="M82.45,44S109,66,151.54,66s65.3-22,65.3-22"/><polygon class="cls-6" points="163.7 91.5 169.35 65.28 152.4 67.17 163.7 91.5"/><polygon class="cls-5" points="191.03 86.52 192.07 59.71 175.7 64.51 191.03 86.52"/><polygon class="cls-6" points="216.43 75.97 212.58 49.42 197.35 57.11 216.43 75.97"/><polygon class="cls-5" points="135.03 90.74 129.39 64.52 146.34 66.41 135.03 90.74"/><polygon class="cls-6" points="107.7 85.76 106.67 58.95 123.04 63.75 107.7 85.76"/><polygon class="cls-5" points="82.3 75.21 86.16 48.66 101.38 56.35 82.3 75.21"/><circle class="cls-4" cx="142.48" cy="180.64" r="37.08"/><path class="cls-4" d="M117.36,183.32a25.26,25.26,0,0,0,50.23,0Z"/><line class="cls-4" x1="166.5" y1="225" x2="214" y2="183.5"/><line class="cls-4" x1="118.5" y1="225" x2="106" y2="265.5"/><polyline class="cls-4" points="179.94 271 175.5 247 230 199.5"/><path class="cls-4" d="M93.5,98h-50a12,12,0,0,0-12,12v24a12,12,0,0,0,12,12h14l38,23L84,146h9.5a12,12,0,0,0,12-12V110A12,12,0,0,0,93.5,98Z"/></g></g></svg>